<svg xmlns="http://www.w3.org/2000/svg" width="60" height="60" viewBox="0 0 60 60" fill="none"><rect x="0.5" y="0.5" width="59" height="59" rx="29.5" stroke="#ECECE0" stroke-opacity="0.32"></rect><path d="M34.5 24H31.5C30.9477 24 30.5 24.4477 30.5 25V28H34.5C34.6137 27.9975 34.7216 28.0504 34.7892 28.1419C34.8568 28.2334 34.8758 28.352 34.84 28.46L34.1 30.66C34.0318 30.8619 33.8431 30.9984 33.63 31H30.5V38.5C30.5 38.7761 30.2761 39 30 39H27.5C27.2239 39 27 38.7761 27 38.5V31H25.5C25.2239 31 25 30.7761 25 30.5V28.5C25 28.2239 25.2239 28 25.5 28H27V25C27 22.7909 28.7909 21 31 21H34.5C34.7761 21 35 21.2239 35 21.5V23.5C35 23.7761 34.7761 24 34.5 24Z" fill="white"></path></svg>