<svg xmlns="http://www.w3.org/2000/svg" width="184" height="48" viewBox="0 0 184 48" fill="none"><g clip-path="url(#clip0_1_801)"><g clip-path="url(#clip1_1_801)"><path d="M47.1273 24.5767C47.1273 22.8642 46.974 21.2175 46.6893 19.6367H24V28.9787H36.9653C36.4068 31.9976 34.7095 34.5554 32.1581 36.2679V42.3276H39.9438C44.4992 38.1232 47.1273 31.9317 47.1273 24.5767Z" fill="#4285F4"></path><path d="M23.9276 47.9996C30.3659 47.9996 35.7637 45.8288 39.7091 42.1264L32.0026 36.0437C29.8673 37.4983 27.1359 38.3578 23.9276 38.3578C17.7168 38.3578 12.4599 34.0933 10.5848 28.3633H2.61816V34.6443C6.54187 42.5671 14.606 47.9996 23.9276 47.9996Z" fill="#34A853"></path><path d="M10.4727 28.6154C9.99719 27.1579 9.72699 25.6011 9.72699 24C9.72699 22.399 9.99719 20.8421 10.4727 19.3846V13.0909H2.52902C0.864621 16.476 -0.00146689 20.2119 1.86496e-06 24C1.86496e-06 27.9198 0.918662 31.6298 2.52902 34.9091L10.4727 28.6154Z" fill="#FBBC05"></path><path d="M24.0779 9.64187C27.6036 9.64187 30.7691 10.865 33.2578 13.2672L40.1454 6.31405C35.9867 2.4022 30.5508 0 24.0779 0C14.6906 0 6.56955 5.43251 2.61816 13.3554L10.641 19.6364C12.5294 13.9063 17.8234 9.64187 24.0779 9.64187Z" fill="#EA4335"></path></g><g clip-path="url(#clip2_1_801)"><path d="M65 11.167L66.8025 14.8187L70.8333 15.4078L67.9167 18.2487L68.605 22.262L65 20.3662L61.395 22.262L62.0833 18.2487L59.1667 15.4078L63.1975 14.8187L65 11.167Z" fill="#E0FB60"></path><path d="M79 11.167L80.8025 14.8187L84.8333 15.4078L81.9167 18.2487L82.605 22.262L79 20.3662L75.395 22.262L76.0833 18.2487L73.1667 15.4078L77.1975 14.8187L79 11.167Z" fill="#E0FB60"></path><path d="M93 11.167L94.8025 14.8187L98.8333 15.4078L95.9167 18.2487L96.605 22.262L93 20.3662L89.395 22.262L90.0833 18.2487L87.1667 15.4078L91.1975 14.8187L93 11.167Z" fill="#E0FB60"></path><path d="M107 11.167L108.802 14.8187L112.833 15.4078L109.917 18.2487L110.605 22.262L107 20.3662L103.395 22.262L104.083 18.2487L101.167 15.4078L105.197 14.8187L107 11.167Z" fill="#E0FB60"></path><path d="M121 11.167L122.802 14.8187L126.833 15.4078L123.917 18.2487L124.605 22.262L121 20.3662L117.395 22.262L118.083 18.2487L115.167 15.4078L119.197 14.8187L121 11.167Z" fill="#E0FB60"></path><path d="M140.635 19.138H134.947V17.086L139.915 9.4H143.047V16.924H144.721V19.138H143.047V22H140.635V19.138ZM140.725 12.118L137.593 16.942H140.725V12.118ZM146.352 20.74C146.352 19.948 147 19.3 147.81 19.3C148.62 19.3 149.268 19.948 149.268 20.74C149.268 21.532 148.62 22.198 147.81 22.198C147 22.198 146.352 21.532 146.352 20.74ZM155.16 22H152.406L155.826 17.626C155.718 17.644 155.61 17.644 155.484 17.644C153 17.644 151.146 15.88 151.146 13.414C151.146 11.02 152.856 9.166 155.736 9.166C158.598 9.166 160.308 11.02 160.308 13.414C160.308 15.178 159.462 16.492 158.598 17.572L155.16 22ZM153.522 13.414C153.522 14.638 154.368 15.448 155.736 15.448C157.14 15.448 157.932 14.674 157.932 13.414C157.932 12.172 157.086 11.362 155.736 11.362C154.368 11.362 153.522 12.172 153.522 13.414Z" fill="white"></path><path d="M162.322 22H161.614L164.494 13.6H165.202L162.322 22ZM167.599 17.032H169.171C170.839 17.032 171.931 18.016 171.931 19.552C171.931 21.1 170.875 22.156 169.087 22.156C167.923 22.156 167.095 21.736 166.327 20.92L166.795 20.416C167.575 21.232 168.247 21.484 169.087 21.484C170.467 21.484 171.235 20.644 171.235 19.552C171.235 18.448 170.467 17.704 169.135 17.704H167.203L166.855 17.284L167.395 13.6H171.475V14.272H168.007L167.599 17.032ZM173.66 21.532C173.66 21.196 173.912 20.932 174.26 20.932C174.596 20.932 174.86 21.196 174.86 21.532C174.86 21.856 174.596 22.132 174.26 22.132C173.912 22.132 173.66 21.856 173.66 21.532ZM179.692 13.444C181.804 13.444 182.812 15.412 182.812 17.8C182.812 20.188 181.804 22.156 179.692 22.156C177.58 22.156 176.584 20.188 176.584 17.8C176.584 15.412 177.58 13.444 179.692 13.444ZM179.692 21.484C181.468 21.484 182.104 19.66 182.104 17.8C182.104 15.94 181.456 14.116 179.692 14.116C177.928 14.116 177.28 15.94 177.28 17.8C177.28 19.66 177.916 21.484 179.692 21.484Z" fill="white" fill-opacity="0.6"></path><path opacity="0.6" d="M67.534 35.618H63.894V34.834H68.374V35.45C68.374 36.094 68.262 36.7053 68.038 37.284C67.8233 37.8533 67.5107 38.3527 67.1 38.782C66.6987 39.2113 66.2133 39.552 65.644 39.804C65.0747 40.056 64.44 40.182 63.74 40.182C63.04 40.182 62.382 40.0513 61.766 39.79C61.1593 39.5193 60.632 39.1553 60.184 38.698C59.736 38.2407 59.3813 37.704 59.12 37.088C58.8587 36.472 58.728 35.8093 58.728 35.1C58.728 34.3907 58.8587 33.728 59.12 33.112C59.3813 32.496 59.736 31.9593 60.184 31.502C60.632 31.0447 61.1593 30.6853 61.766 30.424C62.382 30.1533 63.04 30.018 63.74 30.018C64.468 30.018 65.154 30.1673 65.798 30.466C66.4513 30.7553 67.016 31.1753 67.492 31.726L66.89 32.272C66.554 31.8707 66.12 31.5253 65.588 31.236C65.056 30.9467 64.44 30.802 63.74 30.802C63.152 30.802 62.6013 30.9187 62.088 31.152C61.5747 31.376 61.1313 31.684 60.758 32.076C60.3847 32.468 60.0907 32.9253 59.876 33.448C59.6613 33.9707 59.554 34.5213 59.554 35.1C59.554 35.6787 59.6613 36.2293 59.876 36.752C60.0907 37.2747 60.3847 37.732 60.758 38.124C61.1313 38.516 61.5747 38.8287 62.088 39.062C62.6013 39.286 63.152 39.398 63.74 39.398C64.328 39.398 64.8553 39.2907 65.322 39.076C65.7887 38.852 66.1853 38.572 66.512 38.236C66.848 37.8907 67.1 37.5033 67.268 37.074C67.4453 36.6447 67.534 36.22 67.534 35.8V35.618ZM69.7452 36.528C69.7452 36.024 69.8339 35.5527 70.0112 35.114C70.1979 34.6753 70.4499 34.2927 70.7672 33.966C71.0939 33.6393 71.4766 33.3827 71.9152 33.196C72.3539 33.0093 72.8299 32.916 73.3432 32.916C73.8472 32.916 74.3186 33.0093 74.7572 33.196C75.2052 33.3827 75.5879 33.6393 75.9052 33.966C76.2319 34.2927 76.4886 34.6753 76.6752 35.114C76.8619 35.5527 76.9552 36.024 76.9552 36.528C76.9552 37.032 76.8619 37.5033 76.6752 37.942C76.4886 38.3807 76.2319 38.7633 75.9052 39.09C75.5879 39.4167 75.2052 39.678 74.7572 39.874C74.3186 40.0607 73.8472 40.154 73.3432 40.154C72.8299 40.154 72.3539 40.0607 71.9152 39.874C71.4766 39.678 71.0939 39.4167 70.7672 39.09C70.4499 38.7633 70.1979 38.3807 70.0112 37.942C69.8339 37.5033 69.7452 37.032 69.7452 36.528ZM73.3432 39.384C73.7352 39.384 74.0992 39.3093 74.4352 39.16C74.7806 39.0107 75.0792 38.81 75.3312 38.558C75.5832 38.2967 75.7792 37.9933 75.9192 37.648C76.0592 37.2933 76.1292 36.92 76.1292 36.528C76.1292 36.136 76.0592 35.7673 75.9192 35.422C75.7792 35.0767 75.5832 34.778 75.3312 34.526C75.0792 34.2647 74.7806 34.0593 74.4352 33.91C74.0992 33.7607 73.7352 33.686 73.3432 33.686C72.9419 33.686 72.5686 33.7607 72.2232 33.91C71.8872 34.0593 71.5932 34.2647 71.3412 34.526C71.0986 34.778 70.9072 35.0767 70.7672 35.422C70.6272 35.7673 70.5572 36.136 70.5572 36.528C70.5572 36.92 70.6272 37.2933 70.7672 37.648C70.9072 37.9933 71.0986 38.2967 71.3412 38.558C71.5932 38.81 71.8872 39.0107 72.2232 39.16C72.5686 39.3093 72.9419 39.384 73.3432 39.384ZM78.2355 36.528C78.2355 36.024 78.3241 35.5527 78.5015 35.114C78.6881 34.6753 78.9401 34.2927 79.2575 33.966C79.5841 33.6393 79.9668 33.3827 80.4055 33.196C80.8441 33.0093 81.3201 32.916 81.8335 32.916C82.3375 32.916 82.8088 33.0093 83.2475 33.196C83.6955 33.3827 84.0781 33.6393 84.3955 33.966C84.7221 34.2927 84.9788 34.6753 85.1655 35.114C85.3521 35.5527 85.4455 36.024 85.4455 36.528C85.4455 37.032 85.3521 37.5033 85.1655 37.942C84.9788 38.3807 84.7221 38.7633 84.3955 39.09C84.0781 39.4167 83.6955 39.678 83.2475 39.874C82.8088 40.0607 82.3375 40.154 81.8335 40.154C81.3201 40.154 80.8441 40.0607 80.4055 39.874C79.9668 39.678 79.5841 39.4167 79.2575 39.09C78.9401 38.7633 78.6881 38.3807 78.5015 37.942C78.3241 37.5033 78.2355 37.032 78.2355 36.528ZM81.8335 39.384C82.2255 39.384 82.5895 39.3093 82.9255 39.16C83.2708 39.0107 83.5695 38.81 83.8215 38.558C84.0735 38.2967 84.2695 37.9933 84.4095 37.648C84.5495 37.2933 84.6195 36.92 84.6195 36.528C84.6195 36.136 84.5495 35.7673 84.4095 35.422C84.2695 35.0767 84.0735 34.778 83.8215 34.526C83.5695 34.2647 83.2708 34.0593 82.9255 33.91C82.5895 33.7607 82.2255 33.686 81.8335 33.686C81.4321 33.686 81.0588 33.7607 80.7135 33.91C80.3775 34.0593 80.0835 34.2647 79.8315 34.526C79.5888 34.778 79.3975 35.0767 79.2575 35.422C79.1175 35.7673 79.0475 36.136 79.0475 36.528C79.0475 36.92 79.1175 37.2933 79.2575 37.648C79.3975 37.9933 79.5888 38.2967 79.8315 38.558C80.0835 38.81 80.3775 39.0107 80.7135 39.16C81.0588 39.3093 81.4321 39.384 81.8335 39.384ZM93.1237 38.348C93.0304 38.4973 92.8997 38.6607 92.7317 38.838C92.573 39.006 92.377 39.1647 92.1437 39.314C91.9104 39.4633 91.635 39.5893 91.3177 39.692C91.0097 39.7853 90.655 39.832 90.2537 39.832C89.7684 39.832 89.311 39.748 88.8817 39.58C88.4524 39.4027 88.079 39.16 87.7617 38.852C87.4444 38.544 87.1924 38.18 87.0057 37.76C86.819 37.34 86.7257 36.878 86.7257 36.374C86.7257 35.87 86.819 35.408 87.0057 34.988C87.1924 34.568 87.4444 34.204 87.7617 33.896C88.079 33.588 88.4524 33.35 88.8817 33.182C89.311 33.0047 89.7684 32.916 90.2537 32.916C90.683 32.916 91.061 32.9767 91.3877 33.098C91.7144 33.21 91.9944 33.35 92.2277 33.518C92.4704 33.686 92.6664 33.868 92.8157 34.064C92.9744 34.2507 93.091 34.4187 93.1657 34.568V33.07H93.9357L93.9217 39.37C93.9217 39.986 93.8284 40.5227 93.6417 40.98C93.4644 41.4373 93.2124 41.8153 92.8857 42.114C92.5684 42.422 92.195 42.6507 91.7657 42.8C91.3457 42.9493 90.8884 43.024 90.3937 43.024C89.955 43.024 89.5584 42.9727 89.2037 42.87C88.8584 42.7673 88.555 42.632 88.2937 42.464C88.0324 42.296 87.8084 42.1047 87.6217 41.89C87.4444 41.6753 87.3044 41.456 87.2017 41.232L87.8877 40.84C88.0744 41.232 88.3824 41.5633 88.8117 41.834C89.241 42.114 89.7684 42.254 90.3937 42.254C90.823 42.254 91.2057 42.184 91.5417 42.044C91.887 41.904 92.1764 41.708 92.4097 41.456C92.643 41.204 92.8204 40.9053 92.9417 40.56C93.063 40.224 93.1237 39.8507 93.1237 39.44V38.348ZM90.3237 39.062C90.7157 39.062 91.0797 38.9967 91.4157 38.866C91.761 38.726 92.0597 38.5393 92.3117 38.306C92.5637 38.0633 92.7597 37.7787 92.8997 37.452C93.0397 37.1253 93.1097 36.766 93.1097 36.374C93.1097 35.982 93.0397 35.6227 92.8997 35.296C92.7597 34.96 92.5637 34.6753 92.3117 34.442C92.0597 34.1993 91.761 34.0127 91.4157 33.882C91.0797 33.7513 90.7157 33.686 90.3237 33.686C89.9224 33.686 89.549 33.756 89.2037 33.896C88.8677 34.0267 88.5737 34.2133 88.3217 34.456C88.079 34.6893 87.8877 34.9693 87.7477 35.296C87.6077 35.6227 87.5377 35.982 87.5377 36.374C87.5377 36.766 87.6077 37.1253 87.7477 37.452C87.8877 37.7787 88.079 38.0633 88.3217 38.306C88.5737 38.5393 88.8677 38.726 89.2037 38.866C89.549 38.9967 89.9224 39.062 90.3237 39.062ZM96.6829 40V29.836H97.4949V40H96.6829ZM106.369 36.318C106.369 36.4207 106.364 36.5327 106.355 36.654C106.346 36.7753 106.332 36.8593 106.313 36.906H100.349C100.396 37.2513 100.498 37.578 100.657 37.886C100.816 38.1847 101.016 38.446 101.259 38.67C101.502 38.894 101.782 39.0713 102.099 39.202C102.416 39.3233 102.757 39.384 103.121 39.384C103.373 39.384 103.597 39.3653 103.793 39.328C103.989 39.2907 104.171 39.2393 104.339 39.174C104.507 39.0993 104.675 39.006 104.843 38.894C105.011 38.782 105.193 38.6513 105.389 38.502L105.879 39.076C105.459 39.4307 105.03 39.7013 104.591 39.888C104.162 40.0653 103.672 40.154 103.121 40.154C102.608 40.154 102.132 40.0607 101.693 39.874C101.254 39.6873 100.872 39.4307 100.545 39.104C100.228 38.768 99.9756 38.3807 99.7889 37.942C99.6022 37.5033 99.5089 37.032 99.5089 36.528C99.5089 36.024 99.6022 35.5527 99.7889 35.114C99.9756 34.6753 100.228 34.2927 100.545 33.966C100.872 33.6393 101.254 33.3827 101.693 33.196C102.132 33.0093 102.608 32.916 103.121 32.916C103.644 32.916 104.106 33.0047 104.507 33.182C104.908 33.3593 105.244 33.602 105.515 33.91C105.795 34.2087 106.005 34.568 106.145 34.988C106.294 35.3987 106.369 35.842 106.369 36.318ZM105.571 36.108C105.552 35.7627 105.482 35.4453 105.361 35.156C105.249 34.8573 105.09 34.6007 104.885 34.386C104.68 34.162 104.428 33.9893 104.129 33.868C103.84 33.7467 103.504 33.686 103.121 33.686C102.757 33.686 102.416 33.7513 102.099 33.882C101.791 34.0033 101.511 34.1713 101.259 34.386C101.016 34.6007 100.816 34.8573 100.657 35.156C100.498 35.4547 100.396 35.772 100.349 36.108H105.571ZM117.265 40L114.409 36.22C114.371 36.2293 114.325 36.234 114.269 36.234H112.099V40H111.287V30.2H114.269C114.595 30.2 114.936 30.256 115.291 30.368C115.645 30.48 115.972 30.6573 116.271 30.9C116.569 31.1333 116.817 31.4413 117.013 31.824C117.209 32.1973 117.307 32.6547 117.307 33.196C117.307 33.6067 117.246 33.9707 117.125 34.288C117.013 34.6053 116.863 34.8853 116.677 35.128C116.49 35.3613 116.271 35.5573 116.019 35.716C115.776 35.8653 115.524 35.982 115.263 36.066L118.245 40H117.265ZM112.099 35.45H114.171C114.6 35.45 114.964 35.38 115.263 35.24C115.561 35.1 115.799 34.9227 115.977 34.708C116.163 34.4933 116.294 34.2507 116.369 33.98C116.453 33.7093 116.495 33.448 116.495 33.196C116.495 32.944 116.453 32.6873 116.369 32.426C116.294 32.1647 116.163 31.9267 115.977 31.712C115.799 31.4973 115.561 31.3247 115.263 31.194C114.964 31.054 114.6 30.984 114.171 30.984H112.099V35.45ZM124.278 35.31C124.278 35.0953 124.236 34.89 124.152 34.694C124.068 34.498 123.946 34.3253 123.788 34.176C123.638 34.0267 123.452 33.91 123.228 33.826C123.004 33.7327 122.747 33.686 122.458 33.686C121.888 33.686 121.44 33.8027 121.114 34.036C120.796 34.26 120.535 34.5213 120.33 34.82L119.63 34.414C119.751 34.218 119.891 34.0313 120.05 33.854C120.218 33.6767 120.414 33.518 120.638 33.378C120.871 33.238 121.132 33.126 121.422 33.042C121.72 32.958 122.066 32.916 122.458 32.916C122.859 32.916 123.218 32.9767 123.536 33.098C123.862 33.2193 124.138 33.392 124.362 33.616C124.595 33.8307 124.772 34.0873 124.894 34.386C125.015 34.6753 125.076 34.9927 125.076 35.338V40H124.306V38.754C124.091 39.146 123.76 39.4773 123.312 39.748C122.873 40.0187 122.322 40.154 121.66 40.154C121.324 40.154 121.016 40.1073 120.736 40.014C120.456 39.93 120.208 39.804 119.994 39.636C119.788 39.468 119.625 39.2627 119.504 39.02C119.392 38.768 119.336 38.488 119.336 38.18C119.336 37.592 119.522 37.1393 119.896 36.822C120.269 36.4953 120.764 36.2853 121.38 36.192L123.634 35.856C123.895 35.8093 124.068 35.7393 124.152 35.646C124.236 35.5527 124.278 35.4407 124.278 35.31ZM124.278 36.486L121.59 36.892C120.619 37.0413 120.134 37.466 120.134 38.166C120.134 38.6047 120.288 38.9173 120.596 39.104C120.913 39.2907 121.296 39.384 121.744 39.384C122.126 39.384 122.472 39.3327 122.78 39.23C123.088 39.118 123.354 38.964 123.578 38.768C123.802 38.572 123.974 38.3387 124.096 38.068C124.217 37.7973 124.278 37.4987 124.278 37.172V36.486ZM127.872 33.812H126.542V33.07H127.284C127.499 33.07 127.648 33.0233 127.732 32.93C127.825 32.8367 127.877 32.6827 127.886 32.468L127.97 30.984H128.684V33.07H130.994V33.812H128.684V37.746C128.684 38.8007 129.099 39.328 129.93 39.328C130.163 39.328 130.359 39.314 130.518 39.286C130.686 39.258 130.877 39.216 131.092 39.16V39.93C130.896 39.986 130.705 40.028 130.518 40.056C130.341 40.084 130.145 40.098 129.93 40.098C129.249 40.098 128.735 39.8973 128.39 39.496C128.045 39.0947 127.872 38.5253 127.872 37.788V33.812ZM132.703 30.396C132.703 30.2187 132.763 30.0693 132.885 29.948C133.006 29.8173 133.16 29.752 133.347 29.752C133.533 29.752 133.687 29.8173 133.809 29.948C133.939 30.0693 134.005 30.2187 134.005 30.396C134.005 30.5827 133.939 30.7413 133.809 30.872C133.687 30.9933 133.533 31.054 133.347 31.054C133.16 31.054 133.006 30.9933 132.885 30.872C132.763 30.7413 132.703 30.5827 132.703 30.396ZM132.941 40V33.07H133.753V40H132.941ZM136.523 40V33.07H137.279V34.582C137.335 34.4233 137.419 34.2507 137.531 34.064C137.652 33.868 137.811 33.686 138.007 33.518C138.203 33.35 138.445 33.21 138.735 33.098C139.024 32.9767 139.365 32.916 139.757 32.916C140.121 32.916 140.461 32.9767 140.779 33.098C141.105 33.21 141.385 33.392 141.619 33.644C141.861 33.896 142.053 34.218 142.193 34.61C142.333 34.9927 142.403 35.4547 142.403 35.996V40H141.605V36.164C141.605 35.2773 141.413 34.6427 141.031 34.26C140.648 33.8773 140.153 33.686 139.547 33.686C139.211 33.686 138.907 33.7607 138.637 33.91C138.366 34.05 138.133 34.246 137.937 34.498C137.741 34.7407 137.591 35.0207 137.489 35.338C137.386 35.6553 137.335 35.9913 137.335 36.346V40H136.523ZM150.696 38.348C150.603 38.4973 150.472 38.6607 150.304 38.838C150.145 39.006 149.949 39.1647 149.716 39.314C149.483 39.4633 149.207 39.5893 148.89 39.692C148.582 39.7853 148.227 39.832 147.826 39.832C147.341 39.832 146.883 39.748 146.454 39.58C146.025 39.4027 145.651 39.16 145.334 38.852C145.017 38.544 144.765 38.18 144.578 37.76C144.391 37.34 144.298 36.878 144.298 36.374C144.298 35.87 144.391 35.408 144.578 34.988C144.765 34.568 145.017 34.204 145.334 33.896C145.651 33.588 146.025 33.35 146.454 33.182C146.883 33.0047 147.341 32.916 147.826 32.916C148.255 32.916 148.633 32.9767 148.96 33.098C149.287 33.21 149.567 33.35 149.8 33.518C150.043 33.686 150.239 33.868 150.388 34.064C150.547 34.2507 150.663 34.4187 150.738 34.568V33.07H151.508L151.494 39.37C151.494 39.986 151.401 40.5227 151.214 40.98C151.037 41.4373 150.785 41.8153 150.458 42.114C150.141 42.422 149.767 42.6507 149.338 42.8C148.918 42.9493 148.461 43.024 147.966 43.024C147.527 43.024 147.131 42.9727 146.776 42.87C146.431 42.7673 146.127 42.632 145.866 42.464C145.605 42.296 145.381 42.1047 145.194 41.89C145.017 41.6753 144.877 41.456 144.774 41.232L145.46 40.84C145.647 41.232 145.955 41.5633 146.384 41.834C146.813 42.114 147.341 42.254 147.966 42.254C148.395 42.254 148.778 42.184 149.114 42.044C149.459 41.904 149.749 41.708 149.982 41.456C150.215 41.204 150.393 40.9053 150.514 40.56C150.635 40.224 150.696 39.8507 150.696 39.44V38.348ZM147.896 39.062C148.288 39.062 148.652 38.9967 148.988 38.866C149.333 38.726 149.632 38.5393 149.884 38.306C150.136 38.0633 150.332 37.7787 150.472 37.452C150.612 37.1253 150.682 36.766 150.682 36.374C150.682 35.982 150.612 35.6227 150.472 35.296C150.332 34.96 150.136 34.6753 149.884 34.442C149.632 34.1993 149.333 34.0127 148.988 33.882C148.652 33.7513 148.288 33.686 147.896 33.686C147.495 33.686 147.121 33.756 146.776 33.896C146.44 34.0267 146.146 34.2133 145.894 34.456C145.651 34.6893 145.46 34.9693 145.32 35.296C145.18 35.6227 145.11 35.982 145.11 36.374C145.11 36.766 145.18 37.1253 145.32 37.452C145.46 37.7787 145.651 38.0633 145.894 38.306C146.146 38.5393 146.44 38.726 146.776 38.866C147.121 38.9967 147.495 39.062 147.896 39.062Z" fill="white"></path></g></g><defs><clipPath id="clip0_1_801"><rect width="184" height="48" fill="white"></rect></clipPath><clipPath id="clip1_1_801"><rect width="48" height="48" rx="24" fill="white"></rect></clipPath><clipPath id="clip2_1_801"><rect width="126" height="32" fill="white" transform="translate(58 8)"></rect></clipPath></defs></svg>