<svg xmlns="http://www.w3.org/2000/svg" width="183" height="42" viewBox="0 0 183 42" fill="none"><g clip-path="url(#clip0_1_173)"><path d="M121.5 8.87402C128.596 8.87402 134.012 14.0873 134.012 21.1472C134.012 28.2071 128.596 33.3713 121.5 33.3713C114.404 33.3713 108.988 28.2071 108.988 21.1472C108.988 14.0873 114.404 8.87402 121.5 8.87402ZM127.372 21.1472C127.372 17.9277 124.893 15.3129 121.5 15.3129C118.107 15.3129 115.66 17.9277 115.66 21.1472C115.66 24.3666 118.107 26.9487 121.483 26.9487C124.86 26.9487 127.372 24.3503 127.372 21.1472Z" fill="#E0FB60"></path><path d="M136.997 32.8646V0H143.637V11.7665C145.268 10.0506 147.16 8.87393 150.635 8.87393C156.866 8.87393 162.07 14.0381 162.07 21.1471C162.07 28.207 156.866 33.3712 150.635 33.3712C146.801 33.3712 144.762 31.9167 142.902 29.923V32.8646H136.997ZM143.685 21.1471C143.685 24.3665 146.165 26.9486 149.558 26.9486C152.951 26.9486 155.382 24.3665 155.382 21.1471C155.382 17.9276 152.935 15.3455 149.558 15.3455C146.181 15.3455 143.685 17.9276 143.685 21.1471Z" fill="#E0FB60"></path><path d="M174.55 18.0584C178.383 19.0553 183 20.5915 183 25.8864C183 30.2335 179.248 33.3549 173.653 33.3549C169.819 33.3549 166.328 31.9985 164.077 29.3183L168.286 25.4289C169.64 27.0631 171.728 27.7331 173.489 27.7331C175.529 27.7331 176.703 27.0468 176.703 26.0499C176.703 24.8242 175.121 24.4156 172.494 23.6475C168.791 22.6016 164.86 20.8857 164.86 15.9993C164.86 11.832 168.302 8.84131 173.359 8.84131C177.16 8.84131 179.77 10.1487 181.989 12.3713L177.878 16.1791C176.703 15.0024 174.99 14.316 173.489 14.316C172.135 14.316 171.189 14.9534 171.189 15.8522C171.173 16.8818 172.201 17.4374 174.55 18.0584Z" fill="#E0FB60"></path><path d="M37.8789 8.87402C44.9751 8.87402 50.3911 14.0873 50.3911 21.1472C50.3911 28.2071 44.9751 33.3713 37.8789 33.3713C30.7828 33.3713 25.3668 28.2071 25.3668 21.1472C25.3668 14.0873 30.7828 8.87402 37.8789 8.87402ZM43.7516 21.1472C43.7516 17.9277 41.2721 15.3129 37.8789 15.3129C34.4858 15.3129 32.0552 17.9441 32.0552 21.1472C32.0552 24.3503 34.5021 26.9487 37.8789 26.9487C41.2721 26.9324 43.7516 24.3503 43.7516 21.1472Z" fill="#E0FB60"></path><path d="M98.3026 9.36441C98.3026 9.36441 100.015 15.4111 102.267 16.9636C104.094 18.222 106.573 17.7481 107.829 15.9341C109.085 14.12 108.612 11.6197 106.802 10.3613C104.55 8.79242 98.3026 9.36441 98.3026 9.36441Z" fill="#E0FB60"></path><path d="M87.5196 20.9345C87.5196 27.9127 82.4789 33.2893 76.3452 33.2893C73.2131 33.2893 70.9292 32.2107 69.3795 30.4294V41.9998H62.3649V9.23329H69.3795V11.4395C70.9292 9.65819 73.2131 8.57959 76.3452 8.57959C82.4789 8.57959 87.5196 13.9562 87.5196 20.9345ZM80.5213 20.9345C80.5213 17.4208 78.1885 15.2146 74.9586 15.2146C71.7286 15.2146 69.3958 17.4208 69.3958 20.9345C69.3958 24.4481 71.7286 26.638 74.9586 26.638C78.1885 26.638 80.5213 24.4481 80.5213 20.9345Z" fill="#E0FB60"></path><path d="M22.4305 18.3527V32.7177H15.4158V19.3822C15.4158 16.4733 13.5888 15.1169 11.3539 15.1169C8.77643 15.1169 7.01462 16.6204 7.01462 19.9379V32.7177H0V9.33166H7.01462V11.5379C8.27073 9.78925 10.6035 8.66162 13.6867 8.66162C18.4175 8.66162 22.4305 12.0445 22.4305 18.3527Z" fill="#E0FB60"></path><path d="M90.3744 32.8972V9.26611H97.4053V32.9136H90.3744V32.8972Z" fill="#E0FB60"></path></g><defs><clipPath id="clip0_1_173"><rect width="183" height="42" fill="white"></rect></clipPath></defs></svg>